<?xml version="1.0" standalone="no"?>
<!DOCTYPE svg PUBLIC "-//W3C//DTD SVG 20010904//EN"
 "http://www.w3.org/TR/2001/REC-SVG-20010904/DTD/svg10.dtd">
<svg version="1.0" xmlns="http://www.w3.org/2000/svg"
 width="512.000000pt" height="512.000000pt" viewBox="0 0 512.000000 512.000000"
 preserveAspectRatio="xMidYMid meet">

<g transform="translate(0.000000,512.000000) scale(0.100000,-0.100000)"
fill="#000000" stroke="none">
<path d="M1405 4674 c-44 -23 -933 -912 -956 -956 -25 -48 -25 -130 0 -183 26
-56 912 -938 963 -960 50 -20 124 -19 174 4 69 32 124 115 124 191 0 80 -12
95 -288 372 l-266 268 1264 2 1265 3 47 28 c84 49 124 149 97 244 -16 59 -78
124 -135 141 -32 9 -331 12 -1290 12 l-1249 0 257 258 c141 141 264 273 274
292 38 73 16 188 -48 247 -54 51 -170 69 -233 37z"/>
<path d="M3567 2547 c-51 -17 -103 -60 -127 -107 -26 -52 -27 -138 -1 -188 11
-20 132 -149 270 -287 l251 -250 -1262 -5 -1263 -5 -47 -28 c-84 -49 -124
-150 -98 -245 15 -56 80 -123 136 -140 32 -9 331 -12 1290 -12 l1248 0 -265
-267 c-274 -277 -289 -296 -289 -374 0 -88 69 -179 154 -204 41 -13 61 -13
106 -4 l55 11 464 461 c311 311 469 475 482 502 23 49 24 123 4 173 -20 46
-892 924 -947 953 -49 25 -113 32 -161 16z"/>
</g>
</svg>
